HIERARCHY
ROOT Hips
{
	OFFSET 0.00 0.00 0.00
	CHANNELS 6 Xposition Yposition Zposition Xrotation Yrotation Zrotation
	JOINT Spine
	{
		OFFSET 0.00000 6.11665 0.00000
		CHANNELS 3 Xrotation Yrotation Zrotation
		JOINT Head
		{
			OFFSET 0.00000 15.22556 0.00000
			CHANNELS 3 Xrotation Yrotation Zrotation
			End Site
			{
				OFFSET 0.00000 4.52755 0.00000
			}
		}
		JOINT LeftShoulder
		{
			OFFSET 0.00000 8.97765 0.00000
			CHANNELS 3 Xrotation Yrotation Zrotation
			JOINT LeftArm
			{
				OFFSET 7.11013 0.00000 0.00000
				CHANNELS 3 Xrotation Yrotation Zrotation
				JOINT LeftForeArm
				{
					OFFSET 10.39834 0.00000 0.00000
					CHANNELS 3 Yrotation Zrotation Xrotation
					JOINT LeftHand
					{
						OFFSET 8.88900 0.00000 0.00000
						CHANNELS 3 Xrotation Yrotation Zrotation
						JOINT LeftHandThumb1
						{
							OFFSET 0.00000 0.00000 0.00000
							CHANNELS 3 Xrotation Zrotation Yrotation
							End Site
							{
								OFFSET 0.00000 0.00000 3.93700
							}
						}
						End Site
						{
							OFFSET 3.93700 0.00000 0.00000
						}
					}
				}
			}
		}
		JOINT RightShoulder
		{
			OFFSET 0.00000 8.97765 0.00000
			CHANNELS 3 Xrotation Yrotation Zrotation
			JOINT RightArm
			{
				OFFSET -7.11013 0.00000 0.00000
				CHANNELS 3 Xrotation Yrotation Zrotation
				JOINT RightForeArm
				{
					OFFSET -10.39834 0.00000 0.00000
					CHANNELS 3 Yrotation Zrotation Xrotation
					JOINT RightHand
					{
						OFFSET -8.88900 0.00000 0.00000
						CHANNELS 3 Xrotation Yrotation Zrotation
						JOINT RightHandThumb1
						{
							OFFSET 0.00000 0.00000 0.00000
							CHANNELS 3 Xrotation Zrotation Yrotation
							End Site
							{
								OFFSET 0.00000 0.00000 3.93700
							}
						}
						End Site
						{
							OFFSET -3.93700 0.00000 0.00000
						}
					}
				}
			}
		}
	}
	JOINT LeftUpLeg
	{
		OFFSET 4.71176 0.00000 0.00000
		CHANNELS 3 Xrotation Yrotation Zrotation
		JOINT LeftLeg
		{
			OFFSET 0.00000 -15.51045 0.00000
			CHANNELS 3 Xrotation Yrotation Zrotation
			JOINT LeftFoot
			{
				OFFSET 0.00000 -14.85806 0.00000
				CHANNELS 3 Xrotation Yrotation Zrotation
				JOINT LeftToeBase
				{
					OFFSET 0.00000 -1.32744 4.95409
					CHANNELS 3 Xrotation Yrotation Zrotation
					End Site
					{
						OFFSET 0.00000 0.00000 2.95275
					}
				}
			}
		}
	}
	JOINT RightUpLeg
	{
		OFFSET -4.71176 0.00000 0.00000
		CHANNELS 3 Xrotation Yrotation Zrotation
		JOINT RightLeg
		{
			OFFSET 0.00000 -15.51045 0.00000
			CHANNELS 3 Xrotation Yrotation Zrotation
			JOINT RightFoot
			{
				OFFSET 0.00000 -14.85806 0.00000
				CHANNELS 3 Xrotation Yrotation Zrotation
				JOINT RightToeBase
				{
					OFFSET 0.00000 -1.32744 4.95409
					CHANNELS 3 Xrotation Yrotation Zrotation
					End Site
					{
						OFFSET 0.00000 0.00000 2.95275
					}
				}
			}
		}
	}
}
MOTION
Frames:	17
Frame Time: 0.008333
-3.6909 32.3560 -0.0655 -4.2521 -4.3261 -1.2083 -0.6682 -11.4636 -1.0625 4.2591 37.6636 2.1907 -14.2387 -2.8563 37.2558 -97.0559 54.7019 -29.6552 -98.0895 0.0000 -31.8950 7.8968 -30.2574 15.3907 32.8623 0.0000 24.3270 -8.5290 2.9267 -24.1972 -6.3764 42.5198 103.8547 13.0883 0.0000 2.8200 -1.3180 9.9814 7.5610 33.1476 -0.0000 -26.2537 10.2222 11.4019 -2.7819 -0.4399 0.0000 -0.0000 -9.3841 18.7435 -6.5404 11.0462 -0.0000 -0.0000 9.1424 0.2372 0.2171 2.5881 -0.0000 -0.0000 -11.3689 -21.4158 14.1825 16.8724 -0.0000 -0.0000
-3.6950 32.3585 -0.0374 -4.3140 -4.5222 -1.1688 -0.7433 -11.3445 -1.2589 4.3941 37.4792 2.6400 -14.3203 -2.6206 37.2545 -97.7220 53.9646 -28.9542 -97.8171 0.0000 -32.4246 8.1222 -30.4659 15.7208 32.8623 0.0000 24.3270 -8.5771 2.9543 -24.2940 -6.3757 42.5061 103.9873 13.3211 0.0000 2.8850 -1.3270 9.9269 7.6529 33.1476 -0.0000 -26.2537 10.4187 11.6893 -2.8789 -0.5226 0.0000 -0.0000 -9.3100 18.6824 -6.5157 11.0257 -0.0000 -0.0000 9.2539 1.3459 0.1635 2.5557 -0.0000 -0.0000 -11.4797 -22.3108 14.0702 16.9294 -0.0000 -0.0000
-3.7284 32.3628 -0.0056 -4.3981 -4.6814 -1.2616 -0.7996 -11.2465 -1.4047 4.4080 37.3888 3.2664 -14.3616 -2.4061 37.3104 -98.1417 53.1532 -28.4061 -97.5544 0.0000 -32.8151 8.2040 -30.6643 15.7850 32.8623 0.0000 24.3270 -8.6005 2.9373 -24.2902 -6.3622 42.5360 104.0962 13.5579 -0.0000 3.0399 -1.1686 9.9081 6.7610 33.1476 -0.0000 -26.2537 10.6098 11.9125 -2.7676 -0.6069 0.0000 -0.0000 -9.3068 18.6288 -6.6340 11.0412 -0.0000 -0.0000 9.3628 1.3075 0.2662 2.5633 -0.0000 -0.0000 -11.3981 -22.0761 14.1330 16.9499 -0.0000 -0.0000
-3.7444 32.3664 0.0174 -4.4150 -4.9277 -1.3005 -0.9085 -11.0591 -1.5300 4.4494 37.2725 3.7481 -14.5122 -2.2712 37.3325 -98.2831 52.3354 -27.8876 -97.3215 0.0000 -32.9674 8.2831 -30.7167 15.9083 32.8623 0.0000 24.3270 -8.5898 2.9283 -24.3230 -6.3534 42.5334 104.1578 13.8133 0.0000 3.0638 -1.1163 9.9052 6.4628 33.1476 -0.0000 -26.2537 10.7193 12.1130 -2.7528 -0.6507 0.0000 -0.0000 -9.2923 18.6745 -6.6569 11.0449 -0.0000 -0.0000 9.3973 1.5986 0.2877 2.5263 -0.0000 -0.0000 -11.3561 -22.1188 14.1254 16.9999 -0.0000 -0.0000
-3.7598 32.3680 0.0383 -4.4452 -5.1628 -1.3293 -0.9643 -10.8514 -1.6713 4.3837 37.0859 4.2785 -14.5100 -2.0119 37.4270 -98.5649 51.5939 -27.3800 -97.0756 -0.0000 -32.9557 8.1830 -30.7946 15.6889 32.8623 0.0000 24.3270 -8.5832 2.8465 -24.3406 -6.3858 42.5814 104.2082 14.0891 0.0000 2.8068 -1.3062 9.9757 7.4982 33.1476 -0.0000 -26.2537 10.8555 12.3186 -2.7537 -0.7228 0.0000 -0.0000 -9.2821 18.7129 -6.7169 11.1467 -0.0000 -0.0000 9.4438 1.7547 0.2957 2.4890 -0.0000 -0.0000 -11.3199 -22.0327 14.1595 17.0181 -0.0000 -0.0000
-3.7753 32.3691 0.0556 -4.4554 -5.3809 -1.3775 -1.0251 -10.6142 -1.7661 4.3074 36.9229 4.7561 -14.4150 -1.7483 37.4911 -98.7985 50.8344 -26.9106 -96.8847 -0.0000 -32.5226 8.3992 -30.8751 16.0520 32.8623 0.0000 24.3270 -8.5915 2.7347 -24.3638 -6.3924 42.6247 104.2294 14.3196 -0.0000 2.6635 -1.3556 10.0627 7.7129 33.1476 -0.0000 -26.2537 10.9361 12.3817 -2.7236 -0.7605 0.0000 -0.0000 -9.3102 18.8704 -6.7243 11.0726 -0.0000 -0.0000 9.4617 1.9020 0.3275 2.4616 -0.0000 -0.0000 -11.2706 -21.9549 14.1667 16.9485 -0.0000 -0.0000
-3.7920 32.3704 0.0699 -4.4615 -5.5921 -1.4348 -1.0764 -10.3998 -1.8390 4.2474 36.7785 5.1894 -14.3258 -1.4986 37.5567 -99.0878 50.1597 -26.3330 -96.7053 0.0000 -32.2164 8.1763 -30.9414 15.6127 32.8623 0.0000 24.3270 -8.6436 2.6967 -24.3412 -6.3065 42.6642 104.2251 14.5677 -0.0000 2.7886 -1.0593 9.9350 6.1169 33.1476 -0.0000 -26.2537 10.9948 12.5565 -2.6833 -0.7736 0.0000 -0.0000 -9.3552 18.9210 -6.7353 11.1350 -0.0000 -0.0000 9.4661 1.9193 0.3731 2.4359 -0.0000 -0.0000 -11.2046 -21.7612 14.1811 17.0508 -0.0000 -0.0000
-3.8054 32.3704 0.0852 -4.4757 -5.7832 -1.4803 -1.1132 -10.1956 -1.9178 4.1761 36.6166 5.6150 -14.2567 -1.2547 37.6314 -99.1963 49.5164 -25.8631 -96.5819 0.0000 -31.9971 8.2169 -30.9374 15.6892 32.8623 0.0000 24.3270 -8.6620 2.6130 -24.3313 -6.2866 42.7307 104.2243 14.8434 -0.0000 2.7065 -1.0437 9.8057 6.1057 33.1476 -0.0000 -26.2537 11.0524 12.6866 -2.6558 -0.7664 0.0000 -0.0000 -9.3998 19.0008 -6.7352 11.1386 -0.0000 -0.0000 9.4894 1.9958 0.4041 2.4024 -0.0000 -0.0000 -11.1554 -21.6520 14.2044 17.0343 -0.0000 -0.0000
-3.8190 32.3712 0.1039 -4.5096 -5.9783 -1.5360 -1.1318 -9.9458 -1.9810 4.1055 36.4220 6.0322 -14.2302 -1.0899 37.6729 -99.2549 48.9185 -25.4038 -96.4520 0.0000 -31.9675 8.0895 -31.1306 15.3723 32.8623 0.0000 24.3270 -8.6876 2.4855 -24.3032 -6.2408 42.7793 104.1870 15.0462 0.0000 2.6558 -1.0598 9.8353 6.1808 33.1476 -0.0000 -26.2537 11.1556 12.8287 -2.6289 -0.8011 0.0000 -0.0000 -9.4295 19.0657 -6.6839 11.0870 -0.0000 -0.0000 9.5254 2.0881 0.4395 2.3944 -0.0000 -0.0000 -11.1153 -21.5382 14.2296 16.9809 -0.0000 -0.0000
-3.8226 32.3696 0.1125 -4.4717 -6.1839 -1.5671 -1.2094 -9.6946 -2.0154 4.0189 36.3093 6.3942 -14.2150 -0.9264 37.6560 -99.3356 48.3595 -24.9507 -96.3480 0.0000 -32.0763 8.0461 -31.2497 15.2426 32.8623 0.0000 24.3270 -8.5973 2.3376 -24.3177 -6.3319 42.8038 104.1512 15.2077 0.0000 2.5873 -1.0203 9.7786 5.9860 33.1476 -0.0000 -26.2537 11.1458 12.9383 -2.6292 -0.7758 0.0000 -0.0000 -9.4955 19.1717 -6.6430 11.0111 -0.0000 -0.0000 9.4973 2.1759 0.4465 2.3241 -0.0000 -0.0000 -11.0655 -21.4429 14.1974 16.9948 -0.0000 -0.0000
-3.8279 32.3681 0.1244 -4.4698 -6.3444 -1.5921 -1.2422 -9.4805 -2.0692 3.9295 36.1853 6.7176 -14.2514 -0.7839 37.6255 -99.3563 47.8521 -24.5810 -96.3041 -0.0000 -32.1299 8.0824 -31.2002 15.3300 32.8623 0.0000 24.3270 -8.5880 2.2348 -24.2941 -6.2943 42.7931 104.0853 15.3931 -0.0000 2.7496 -0.9862 9.7286 5.8165 33.1476 -0.0000 -26.2537 11.1493 12.8942 -2.6149 -0.7161 0.0000 -0.0000 -9.5833 19.3609 -6.6662 11.0340 -0.0000 -0.0000 9.4978 2.3274 0.4512 2.3049 -0.0000 -0.0000 -11.0567 -21.4237 14.1703 17.0068 -0.0000 -0.0000
-3.8381 32.3661 0.1400 -4.5025 -6.4808 -1.6325 -1.2577 -9.2906 -2.1283 3.8645 36.1429 7.0450 -14.1633 -0.5233 37.6376 -99.5947 47.5101 -24.2616 -96.2444 0.0000 -32.3089 7.9623 -31.3322 15.0552 32.8623 0.0000 24.3270 -8.5736 2.1832 -24.2470 -6.2360 42.8171 104.0410 15.5657 0.0000 2.6384 -1.0259 9.7698 6.0243 33.1476 -0.0000 -26.2537 11.2209 12.9883 -2.5926 -0.7076 0.0000 -0.0000 -9.6561 19.4165 -6.6215 11.0425 -0.0000 -0.0000 9.5415 2.4483 0.4793 2.2896 -0.0000 -0.0000 -11.0581 -21.4126 14.1650 16.9658 -0.0000 -0.0000
-3.8462 32.3637 0.1576 -4.5497 -6.6033 -1.6764 -1.2527 -9.1155 -2.1650 3.8361 36.0388 7.3204 -14.1567 -0.3301 37.6205 -99.7713 47.2420 -23.9445 -96.2652 0.0000 -32.4849 7.9229 -31.3802 14.9633 32.8623 0.0000 24.3270 -8.5432 2.1224 -24.2375 -6.2107 42.7589 104.0086 15.6645 0.0000 2.4992 -1.1989 9.9589 6.9001 33.1476 -0.0000 -26.2537 11.3167 13.0738 -2.5701 -0.7203 0.0000 -0.0000 -9.7178 19.4716 -6.6135 11.0977 -0.0000 -0.0000 9.6052 2.5296 0.5048 2.2751 -0.0000 -0.0000 -11.0519 -21.3646 14.1938 16.9198 -0.0000 -0.0000
-3.8495 32.3597 0.1753 -4.5873 -6.7061 -1.6673 -1.2703 -8.9594 -2.2473 3.8541 35.9227 7.5368 -14.2167 -0.2141 37.6114 -99.9592 47.1117 -23.5662 -96.3523 0.0000 -32.5173 7.7544 -31.3264 14.6769 32.8623 0.0000 24.3270 -8.5039 2.0871 -24.2387 -6.2032 42.7320 104.0117 15.7354 0.0000 2.4467 -1.2089 10.0077 6.9234 33.1476 -0.0000 -26.2537 11.4050 13.0943 -2.6025 -0.7180 0.0000 -0.0000 -9.7596 19.5409 -6.5974 11.0818 -0.0000 -0.0000 9.6486 2.4954 0.4687 2.2995 -0.0000 -0.0000 -11.1105 -21.2177 14.2449 16.9412 -0.0000 -0.0000
-3.8592 32.3587 0.1924 -4.6321 -6.7681 -1.7386 -1.2740 -8.8348 -2.2355 3.9197 35.7861 7.7217 -14.3115 -0.1232 37.5819 -100.0583 47.0500 -23.2695 -96.5077 0.0000 -32.4131 7.8025 -31.2944 14.7779 32.8623 0.0000 24.3270 -8.4689 2.0749 -24.2143 -6.1538 42.6672 103.9788 15.7664 0.0000 2.3038 -1.3400 10.0949 7.6015 33.1476 -0.0000 -26.2537 11.4842 13.1991 -2.5458 -0.7264 0.0000 -0.0000 -9.8216 19.5335 -6.5383 10.9451 -0.0000 -0.0000 9.7303 2.6067 0.5407 2.2581 -0.0000 -0.0000 -11.0787 -21.2658 14.2033 16.9648 -0.0000 -0.0000
-3.8590 32.3548 0.2079 -4.6597 -6.8136 -1.7181 -1.3014 -8.7236 -2.3045 4.0260 35.6486 7.8119 -14.3662 0.0171 37.5586 -100.3385 47.1342 -22.9875 -96.6621 0.0000 -32.2454 7.5473 -31.3106 14.3030 32.8623 0.0000 24.3270 -8.4551 2.0738 -24.2271 -6.1638 42.7021 104.0378 15.7814 -0.0000 2.4719 -0.9599 9.8131 5.6145 33.1476 -0.0000 -26.2537 11.5470 13.2070 -2.5889 -0.7149 0.0000 -0.0000 -9.8750 19.5901 -6.4790 11.0389 -0.0000 -0.0000 9.7711 2.4906 0.4997 2.2789 -0.0000 -0.0000 -11.1410 -21.1173 14.2684 17.0379 -0.0000 -0.0000
-3.8646 32.3532 0.2262 -4.7085 -6.8329 -1.7431 -1.3162 -8.6264 -2.3214 4.1425 35.4667 7.9090 -14.3895 0.1480 37.5159 -100.6263 47.2485 -22.7379 -96.8586 0.0000 -32.0170 7.5308 -31.2496 14.2966 32.8623 0.0000 24.3270 -8.4264 2.0673 -24.2472 -6.1956 42.6840 104.1065 15.7129 -0.0000 2.4053 -0.9621 9.8544 5.6041 33.1476 -0.0000 -26.2537 11.6291 13.2048 -2.5680 -0.7197 0.0000 -0.0000 -9.9094 19.6113 -6.4564 10.9717 -0.0000 -0.0000 9.8279 2.3527 0.5279 2.3224 -0.0000 -0.0000 -11.1714 -20.9880 14.2263 17.0012 -0.0000 -0.0000
